# xmcd
#
# Track frame offsets:
#	150
#	22119
#	36599
#	57520
#	72590
#	86688
#	101887
#	117067
#	131775
#	146929
#	160640
#	174219
#	187508
#	198376
#	209818
#	223944
#	238302
#	253043
#	266905
#	285140
#
# Disc length: 3965
#
# Revision: 1
# Processed by: cddbd v1.5.1PL0 Copyright (c) Steve Scherf et al.
# Submitted via: CDex 1.50beta10
# Normalized: r0:DSETVAR1,TDELIM( - )
#
DISCID=400f7b14
DTITLE=Various Artist - Selection of Erotic Jazz - CD 2
DYEAR=1999
DGENRE=Jazz
TTITLE0=Lester Young - The Man I Love
TTITLE1=Coleman Hawkins - Sophisticated Lady
TTITLE2=Johnny Hodges - Flamingo
TTITLE3=Don Byas - Once In A While
TTITLE4=Illinois Jacquet - Don't Blame Me
TTITLE5=Lester Young - She's Funny That Way
TTITLE6=Dan Byas - Candy
TTITLE7=Coleman Hawkins - Angel Face
TTITLE8=Sidney Bechet - Love For Sale
TTITLE9=Johnny Hodges - Day Dream
TTITLE10=Lester Young - No Eyes Blues
TTITLE11=Ike Quebec - I. Q. Blues (Blue Harlem)
TTITLE12=Don Byas - They Say It's Wonderful
TTITLE13=Lester Young - I'm Confessin' (That I Love You)
TTITLE14=Don Byas - Stardust
TTITLE15=Coleman Hawkins - My Ideal
TTITLE16=Ike Quebec - Dolores
TTITLE17=Charlie Parker - The Gypsy
TTITLE18=Lester Young - I Cover The Waterfront
TTITLE19=Stan Getz - And The Angels Swing
EXTD=YEAR: 1999
EXTT0=
EXTT1=
EXTT2=
EXTT3=
EXTT4=
EXTT5=
EXTT6=
EXTT7=
EXTT8=
EXTT9=
EXTT10=
EXTT11=
EXTT12=
EXTT13=
EXTT14=
EXTT15=
EXTT16=
EXTT17=
EXTT18=
EXTT19=
PLAYORDER=
